<svg xmlns="http://www.w3.org/2000/svg" viewBox="0 0 135.65 64.12"><defs><style>.cls-1,.cls-2{fill:#fff;}.cls-2{fill-rule:evenodd;}</style></defs><g id="Layer_2" data-name="Layer 2"><g id="Layer_1-2" data-name="Layer 1"><path class="cls-1" d="M19.94,32.27c0-1.7,0-6.23,0-6.78C20,18.74,15,14,12,14.35A5.26,5.26,0,0,0,7,17.93c-.89,2.35-.08,5.46,2.88,6.2,3.18.79,5,1.43,6.38,2.36a7.23,7.23,0,0,1,3,5.79Z"/><path class="cls-1" d="M18.61,32.28a6.18,6.18,0,0,0-2.79-5.13c-1.4-.92-3.29-1.51-6.34-2.29a3.42,3.42,0,0,1-2.23-1.45c-.81.81-1,2.63-.81,3.7a4.26,4.26,0,0,0,3.77,3.36A16.67,16.67,0,0,0,14,30c1.39-.29,3.59.57,3.93,2.27Z"/><path class="cls-2" d="M4.69,37.62A39.46,39.46,0,0,1,.88,20.94,37.92,37.92,0,0,1,4.65,4.52,38.2,38.2,0,0,1,21.11.84a39,39,0,0,1,16.63,4,39.36,39.36,0,0,1,3.9,16.68A38.16,38.16,0,0,1,37.8,37.93,38.62,38.62,0,0,1,21.25,41.6,38.79,38.79,0,0,1,4.69,37.62ZM4,38.37A41.08,41.08,0,0,1,0,21,39.6,39.6,0,0,1,3.93,3.84,40,40,0,0,1,21.11,0,40.87,40.87,0,0,1,38.46,4.16a41.16,41.16,0,0,1,4.06,17.41,39.72,39.72,0,0,1-4,17.12,40.37,40.37,0,0,1-17.25,3.83A40.66,40.66,0,0,1,4,38.37Z"/><path class="cls-1" d="M21.06,3.85c-3.69,0-6.87,2.44-6.86,6.64,0,3.54,2.85,5.43,3.87,6.78,1.54,2,2.36,4.45,2.45,8.15.07,2.93.07,5.83.08,6.87h.81c0-1.09,0-4.17,0-7a12.66,12.66,0,0,1,2.46-8c1-1.35,3.85-3.24,3.87-6.78,0-4.2-3.17-6.64-6.86-6.64"/><path class="cls-1" d="M22,32.27c0-1.7,0-6.23,0-6.78,0-6.75,4.87-11.5,8-11.14a5.25,5.25,0,0,1,4.91,3.58c.89,2.35.09,5.46-2.88,6.2-3.18.79-5,1.43-6.38,2.36a7.16,7.16,0,0,0-2.92,5.79Z"/><path class="cls-1" d="M23.32,32.28a6.17,6.17,0,0,1,2.78-5.13c1.41-.92,3.3-1.51,6.34-2.29a3.37,3.37,0,0,0,2.23-1.45c.81.81,1,2.63.82,3.7a4.28,4.28,0,0,1-3.78,3.36A16.83,16.83,0,0,1,27.89,30c-1.39-.29-3.58.57-3.94,2.27Z"/><path class="cls-1" d="M24.46,39.29,24,35.85l1.15-.17a.89.89,0,0,1,.75.18,1,1,0,0,1,.22.57.74.74,0,0,1-.38.8h0c.37,0,.59.27.65.72a1.71,1.71,0,0,1,0,.52c-.07.45-.34.59-.81.65Zm.73-.62a1,1,0,0,0,.38-.09c.16-.1.15-.33.12-.51-.05-.37-.15-.51-.55-.45l-.25,0,.16,1ZM25,37.08c.16,0,.36,0,.44-.18a.51.51,0,0,0,.07-.38c-.05-.26-.14-.41-.45-.35l-.3,0,.12.89Z"/><path class="cls-1" d="M29.39,37.22l0,.2c.08.63,0,1.15-.74,1.29-1,.2-1.24-.45-1.42-1.35l-.1-.49C27,36,27,35.34,28,35.14a.86.86,0,0,1,1.1.7,2.33,2.33,0,0,1,.07.25l-.63.13c-.07-.21-.16-.6-.44-.57-.51.06-.34.69-.29,1l.19.95c.05.27.16.73.6.65s.2-.63.17-.85Z"/><path class="cls-1" d="M30.39,38.26l-.21-3.56.84-.25,1.75,3.09-.66.2L31.69,37l-.73.22.1.89Zm.51-1.67.53-.15h0L30.72,35l.18,1.58Z"/><path class="cls-1" d="M9.69,35.57c.26-.84.49-1.46,1.49-1.19.54.16.87.4.86,1a2.84,2.84,0,0,1-.08.42l-.63-.17c.09-.35.13-.62-.28-.75s-.61.46-.68.72l-.25.93c-.08.28-.18.74.25.85s.58-.25.7-.76l-.43-.12.14-.53,1,.33-.49,1.79L10.85,38,11,37.6h0a.67.67,0,0,1-.72.31c-1-.28-.92-.95-.67-1.85Z"/><path class="cls-1" d="M13.5,37.09l-.31,1.46-.69-.15L13.23,35l1.19.26c.7.15.91.46.81,1.09-.06.38-.24.76-.68.73h0c.37.13.41.31.34.64,0,.14-.22,1-.09,1.1v.11l-.71-.19a2.91,2.91,0,0,1,.11-.88c0-.2.1-.49-.1-.6a1.45,1.45,0,0,0-.42-.12Zm.12-.53.47.13c.28,0,.44-.11.49-.45s0-.44-.26-.49l-.51-.11Z"/><path class="cls-1" d="M18,35.75l.69.08-.31,2.4c-.13.76-.43,1.1-1.27,1s-1.06-.5-1-1.26l.29-2.4.69.08L16.76,38c0,.26-.09.64.36.67s.5-.22.54-.55Z"/><path class="cls-1" d="M19.4,39.35l.21-3.44,1.32.07c.62,0,.79.53.77,1a1.08,1.08,0,0,1-.37.81,1.18,1.18,0,0,1-.73.17l-.44,0-.08,1.44Zm.79-1.91h.34c.29,0,.48-.1.5-.52s-.14-.46-.5-.48h-.28Z"/><path class="cls-1" d="M112.52,7.17l-5.25,9.52a11.61,11.61,0,0,0-7.49-2.78c-7.29,0-10.26,5.44-10.26,9.28,0,2.84,1.86,7,8.36,7,2.72,0,6.6-1.9,7.72-2.77l-5.19,11.06a27.22,27.22,0,0,1-5.38.86c-11.63.35-16.33-6.8-16.33-14.09,0-9.65,8.6-21.39,22.81-21.39a9.23,9.23,0,0,1,2.86.63l.91-1.17Z"/><path class="cls-1" d="M134.17,3.65l1.48,34.62H124.6V32.33h-7.54l-2.49,5.94h-12l12.53-24.72-2.83,0,5.38-9.88Zm-9.65,10.59-4.27,10.08h4.39Z"/><path class="cls-1" d="M71.72,3.65c5.48,0,8.58,3,8.58,7.31,0,3.95-3.27,7.45-6.86,9.26,3.69,1.37,4,4.7,4,7.05,0,5.68-5.71,11-13.13,11H48.14L54.45,13.9l-2.59,0,5.3-10.23S67.27,3.63,71.72,3.65Zm-5.36,14A3.36,3.36,0,0,0,70,15.21c.54-2.38-1.34-2.44-2.24-2.44l-3.22,0-1.12,4.94Zm-4.55,6.12L60.32,29.5h3.79c1.49,0,3.52-.74,4-2.6a2.4,2.4,0,0,0-2.41-3.09Z"/><path class="cls-1" d="M15.63,60.54a3.93,3.93,0,0,1,.12.45.29.29,0,0,1-.06.24.54.54,0,0,1-.31.1l-.59,0h-.62a1.29,1.29,0,0,1-.34-.05.31.31,0,0,1-.16-.09.67.67,0,0,1-.08-.17l-.67-2H9.15l-.63,2a.75.75,0,0,1-.08.18.37.37,0,0,1-.17.12,1.54,1.54,0,0,1-.31.06H7.42l-.56,0a.53.53,0,0,1-.28-.11.32.32,0,0,1,0-.26,2.08,2.08,0,0,1,.11-.43l3.09-8.9a2,2,0,0,1,.11-.21.43.43,0,0,1,.2-.12,1.59,1.59,0,0,1,.38-.06h1.36a1.9,1.9,0,0,1,.42.06.45.45,0,0,1,.22.12.9.9,0,0,1,.11.24ZM11,53.19h0L9.6,57.45h2.85Z"/><path class="cls-1" d="M18.87,61a.24.24,0,0,1-.05.14.27.27,0,0,1-.16.09,1,1,0,0,1-.29.06l-.48,0-.47,0a1.13,1.13,0,0,1-.3-.06.35.35,0,0,1-.16-.09.23.23,0,0,1,0-.14V50.85a.23.23,0,0,1,0-.14.49.49,0,0,1,.16-.1,1.67,1.67,0,0,1,.3-.07l.47,0,.48,0a1.37,1.37,0,0,1,.29.07.34.34,0,0,1,.16.1.24.24,0,0,1,.05.14Z"/><path class="cls-1" d="M31.39,54.11a1.83,1.83,0,0,1,0,.21l-.09.36-1.84,6.25a.9.9,0,0,1-.1.22.44.44,0,0,1-.19.12,1.43,1.43,0,0,1-.37.07h-.61l-.62,0a1.59,1.59,0,0,1-.38-.06.48.48,0,0,1-.19-.13.46.46,0,0,1-.1-.21l-1.16-4.2,0-.07v.07l-1.07,4.2a.63.63,0,0,1-.09.22.38.38,0,0,1-.2.12,1.52,1.52,0,0,1-.38.07h-.62l-.62,0a1.49,1.49,0,0,1-.37-.06.53.53,0,0,1-.2-.13.58.58,0,0,1-.09-.21l-1.83-6.25a2,2,0,0,1-.09-.35c0-.09,0-.16,0-.22a.2.2,0,0,1,0-.13.27.27,0,0,1,.16-.09,1.42,1.42,0,0,1,.3-.06h1a1.42,1.42,0,0,1,.3.06A.28.28,0,0,1,22,54a.77.77,0,0,1,.07.16l1.37,5.08,0,.09v-.09l1.29-5.08a.46.46,0,0,1,.07-.16.4.4,0,0,1,.15-.1,1.31,1.31,0,0,1,.29-.06h.46l.47,0a1.43,1.43,0,0,1,.28,0,.36.36,0,0,1,.15.1.4.4,0,0,1,.07.13l1.37,5.11,0,.09v-.09l1.32-5.08a.44.44,0,0,1,.06-.16.28.28,0,0,1,.16-.1,1.45,1.45,0,0,1,.29-.06h.94a1.45,1.45,0,0,1,.29.06.21.21,0,0,1,.14.09A.2.2,0,0,1,31.39,54.11Z"/><path class="cls-1" d="M38.36,61.06a.2.2,0,0,1-.08.17.38.38,0,0,1-.24.09,3.07,3.07,0,0,1-.5,0,2.91,2.91,0,0,1-.5,0,.35.35,0,0,1-.23-.09.22.22,0,0,1-.06-.17v-.55a3.11,3.11,0,0,1-1,.72,2.79,2.79,0,0,1-1.21.25,3.25,3.25,0,0,1-1-.14,2.37,2.37,0,0,1-.8-.43,1.84,1.84,0,0,1-.52-.7,2.29,2.29,0,0,1-.19-1,2.13,2.13,0,0,1,.24-1,1.91,1.91,0,0,1,.7-.74A3.66,3.66,0,0,1,34.15,57a8.65,8.65,0,0,1,1.62-.14h.67v-.42a2.37,2.37,0,0,0-.06-.57,1.08,1.08,0,0,0-.22-.41,1,1,0,0,0-.4-.24,2.28,2.28,0,0,0-.63-.07,3,3,0,0,0-.87.11,4.88,4.88,0,0,0-.68.24,3.74,3.74,0,0,0-.49.24.72.72,0,0,1-.32.1.2.2,0,0,1-.15,0,.5.5,0,0,1-.11-.16.7.7,0,0,1-.06-.24,1.69,1.69,0,0,1,0-.33,1.84,1.84,0,0,1,0-.38.73.73,0,0,1,.15-.25A1.54,1.54,0,0,1,33,54.2a4.86,4.86,0,0,1,.63-.25,5.87,5.87,0,0,1,.8-.19,5.1,5.1,0,0,1,.89-.07,5.16,5.16,0,0,1,1.39.16,2.2,2.2,0,0,1,.94.48,2,2,0,0,1,.55.85,4.11,4.11,0,0,1,.17,1.23Zm-1.92-3H35.7a4.7,4.7,0,0,0-.81.07,1.69,1.69,0,0,0-.54.21.87.87,0,0,0-.3.34.93.93,0,0,0-.1.45.87.87,0,0,0,.27.68,1.1,1.1,0,0,0,.77.25,1.42,1.42,0,0,0,.75-.21,2.94,2.94,0,0,0,.7-.61Z"/><path class="cls-1" d="M44,61.31l-.83,2.44a.51.51,0,0,1-.38.28,3.49,3.49,0,0,1-.91.09,3.34,3.34,0,0,1-.5,0,.84.84,0,0,1-.28-.09.22.22,0,0,1-.1-.15.53.53,0,0,1,0-.23L42,61.31a.63.63,0,0,1-.18-.15.82.82,0,0,1-.12-.2L39.31,54.6a1.24,1.24,0,0,1-.1-.41A.3.3,0,0,1,39.3,54a.7.7,0,0,1,.32-.11,4.4,4.4,0,0,1,.58,0h.53a1,1,0,0,1,.3.06.32.32,0,0,1,.16.14,1.09,1.09,0,0,1,.11.28l1.63,4.62h0l1.49-4.72a.48.48,0,0,1,.12-.26.45.45,0,0,1,.25-.1,3.89,3.89,0,0,1,.59,0,4.39,4.39,0,0,1,.56,0,.63.63,0,0,1,.32.12.27.27,0,0,1,.11.22.94.94,0,0,1-.07.34Z"/><path class="cls-1" d="M52.3,59.09a2.45,2.45,0,0,1-.22,1,2.08,2.08,0,0,1-.63.75,2.79,2.79,0,0,1-1,.45,4.51,4.51,0,0,1-1.19.15,4.35,4.35,0,0,1-.74-.06,3.28,3.28,0,0,1-.63-.14,3.35,3.35,0,0,1-.47-.18,1.39,1.39,0,0,1-.27-.18.49.49,0,0,1-.13-.26,2.05,2.05,0,0,1,0-.51,3.21,3.21,0,0,1,0-.36,1.09,1.09,0,0,1,0-.22.24.24,0,0,1,.08-.11l.12,0a.63.63,0,0,1,.25.09c.11.07.25.14.41.22a4.79,4.79,0,0,0,.58.21,2.48,2.48,0,0,0,.75.1,1.74,1.74,0,0,0,.47-.05,1.25,1.25,0,0,0,.35-.16.61.61,0,0,0,.23-.25.8.8,0,0,0,.08-.36.65.65,0,0,0-.14-.4,1.65,1.65,0,0,0-.38-.29,4.61,4.61,0,0,0-.54-.23l-.61-.24c-.21-.09-.41-.19-.61-.3a2.45,2.45,0,0,1-.54-.42,1.92,1.92,0,0,1-.38-.6,2.29,2.29,0,0,1-.14-.83,2.09,2.09,0,0,1,.19-.91,1.94,1.94,0,0,1,.56-.71,2.58,2.58,0,0,1,.89-.46,3.9,3.9,0,0,1,1.17-.16,4.26,4.26,0,0,1,.63,0c.21,0,.39.07.56.12l.42.15a1.93,1.93,0,0,1,.24.14.35.35,0,0,1,.1.12.29.29,0,0,1,0,.14c0,.05,0,.12,0,.2a2.63,2.63,0,0,1,0,.3,3.33,3.33,0,0,1,0,.34,1,1,0,0,1,0,.21.2.2,0,0,1-.07.1.23.23,0,0,1-.11,0,.59.59,0,0,1-.22-.08c-.1-.06-.22-.11-.37-.18a3.8,3.8,0,0,0-.51-.17,2.21,2.21,0,0,0-.66-.08,1.58,1.58,0,0,0-.46,0,1,1,0,0,0-.32.16.58.58,0,0,0-.18.23.72.72,0,0,0-.06.29.59.59,0,0,0,.14.41,1.5,1.5,0,0,0,.39.28,6,6,0,0,0,.55.24l.62.23c.21.09.41.19.62.3a2.18,2.18,0,0,1,.54.42,1.9,1.9,0,0,1,.39.59A2,2,0,0,1,52.3,59.09Z"/><path class="cls-1" d="M64.31,57.49a6.45,6.45,0,0,1-.2,1.66,3.72,3.72,0,0,1-.59,1.25,2.46,2.46,0,0,1-.93.8,2.72,2.72,0,0,1-1.26.28,3.34,3.34,0,0,1-.65-.06,2.56,2.56,0,0,1-.58-.22,2.89,2.89,0,0,1-.54-.37,4.58,4.58,0,0,1-.54-.54V61a.2.2,0,0,1-.05.14.26.26,0,0,1-.14.1,1.12,1.12,0,0,1-.26.06h-.79a1.26,1.26,0,0,1-.26-.06.23.23,0,0,1-.13-.1.2.2,0,0,1,0-.14V50.85a.19.19,0,0,1,0-.14.36.36,0,0,1,.15-.1,1.67,1.67,0,0,1,.3-.07l.48,0,.47,0a1.67,1.67,0,0,1,.3.07.49.49,0,0,1,.16.1.23.23,0,0,1,0,.14v3.82a5.29,5.29,0,0,1,.53-.45,3.12,3.12,0,0,1,.53-.3,2.45,2.45,0,0,1,.54-.18,3.61,3.61,0,0,1,.59-.05,2.63,2.63,0,0,1,1.3.3,2.47,2.47,0,0,1,.87.83A3.46,3.46,0,0,1,64.15,56,6.28,6.28,0,0,1,64.31,57.49Zm-2,.14a5.85,5.85,0,0,0-.07-.85,2.32,2.32,0,0,0-.23-.73,1.51,1.51,0,0,0-.42-.51,1.12,1.12,0,0,0-.66-.19,1.26,1.26,0,0,0-.38.06,1.44,1.44,0,0,0-.38.18,3.87,3.87,0,0,0-.41.34,6.56,6.56,0,0,0-.44.52v2.3a4.28,4.28,0,0,0,.79.8,1.32,1.32,0,0,0,.78.27,1.06,1.06,0,0,0,.65-.19,1.78,1.78,0,0,0,.44-.5,2.48,2.48,0,0,0,.25-.71A4.15,4.15,0,0,0,62.29,57.63Z"/><path class="cls-1" d="M69.79,61.31,69,63.75a.49.49,0,0,1-.38.28,3.49,3.49,0,0,1-.91.09,3.19,3.19,0,0,1-.49,0,.7.7,0,0,1-.28-.09.19.19,0,0,1-.1-.15.51.51,0,0,1,0-.23l.93-2.31a.66.66,0,0,1-.19-.15.82.82,0,0,1-.12-.2L65.07,54.6a1.56,1.56,0,0,1-.1-.41.31.31,0,0,1,.1-.23.61.61,0,0,1,.31-.11,4.58,4.58,0,0,1,.59,0h.52a1,1,0,0,1,.3.06A.34.34,0,0,1,67,54c0,.07.07.16.11.28l1.62,4.62h0l1.48-4.72a.7.7,0,0,1,.12-.26.48.48,0,0,1,.25-.1,4,4,0,0,1,.6,0,4.22,4.22,0,0,1,.55,0A.56.56,0,0,1,72,54a.27.27,0,0,1,.11.22,1.16,1.16,0,0,1-.06.34Z"/><path class="cls-1" d="M80.89,61.31l-.84,2.44a.47.47,0,0,1-.38.28,3.4,3.4,0,0,1-.9.09,3.25,3.25,0,0,1-.5,0A.77.77,0,0,1,78,64a.22.22,0,0,1-.1-.15.53.53,0,0,1,0-.23l.92-2.31a.52.52,0,0,1-.18-.15.47.47,0,0,1-.12-.2L76.18,54.6a1.24,1.24,0,0,1-.1-.41.3.3,0,0,1,.09-.23.65.65,0,0,1,.31-.11,4.68,4.68,0,0,1,.59,0h.53a1,1,0,0,1,.3.06.36.36,0,0,1,.16.14,1.63,1.63,0,0,1,.11.28l1.63,4.62h0l1.49-4.72a.48.48,0,0,1,.12-.26.45.45,0,0,1,.24-.1,4,4,0,0,1,.6,0,4.11,4.11,0,0,1,.55,0,.63.63,0,0,1,.33.12.26.26,0,0,1,.1.22,1.16,1.16,0,0,1-.06.34Z"/><path class="cls-1" d="M91.22,57.52A5.49,5.49,0,0,1,91,59.13a3.43,3.43,0,0,1-.71,1.25,3.25,3.25,0,0,1-1.18.82,5.18,5.18,0,0,1-3.27,0,2.84,2.84,0,0,1-1.14-.75,2.91,2.91,0,0,1-.66-1.2,5.4,5.4,0,0,1-.22-1.63A5.18,5.18,0,0,1,84.05,56a3.25,3.25,0,0,1,.71-1.26A3.35,3.35,0,0,1,85.94,54a4.41,4.41,0,0,1,1.66-.28,4.58,4.58,0,0,1,1.61.25,2.79,2.79,0,0,1,1.13.74,2.91,2.91,0,0,1,.66,1.2A5.47,5.47,0,0,1,91.22,57.52Zm-2,.07a5.49,5.49,0,0,0-.08-.94,2.16,2.16,0,0,0-.28-.75,1.33,1.33,0,0,0-.51-.49,1.62,1.62,0,0,0-.81-.18,1.67,1.67,0,0,0-.76.16,1.31,1.31,0,0,0-.53.46,2.27,2.27,0,0,0-.32.74,4.16,4.16,0,0,0-.1,1,5.4,5.4,0,0,0,.08.94,2.3,2.3,0,0,0,.28.75,1.33,1.33,0,0,0,.51.49,1.67,1.67,0,0,0,.81.18,1.86,1.86,0,0,0,.77-.16,1.46,1.46,0,0,0,.53-.46,2.26,2.26,0,0,0,.31-.74A4.1,4.1,0,0,0,89.21,57.59Z"/><path class="cls-1" d="M99.32,61a.33.33,0,0,1,0,.14.24.24,0,0,1-.14.09.76.76,0,0,1-.25.06l-.4,0-.42,0a.76.76,0,0,1-.25-.06.22.22,0,0,1-.13-.09.23.23,0,0,1,0-.14v-.8a4.23,4.23,0,0,1-1.17.93,2.54,2.54,0,0,1-1.22.31,2.82,2.82,0,0,1-1.2-.23,2,2,0,0,1-.78-.64,2.49,2.49,0,0,1-.43-.93,5.44,5.44,0,0,1-.13-1.32V54.13a.33.33,0,0,1,0-.14.34.34,0,0,1,.16-.09,1,1,0,0,1,.3-.06l.47,0,.47,0a1,1,0,0,1,.3.06.34.34,0,0,1,.16.09.24.24,0,0,1,0,.14V58a3.45,3.45,0,0,0,.07.82,1.21,1.21,0,0,0,.21.49.92.92,0,0,0,.36.32,1.08,1.08,0,0,0,.52.12,1.29,1.29,0,0,0,.75-.28,4.78,4.78,0,0,0,.8-.78v-4.6a.23.23,0,0,1,0-.14.34.34,0,0,1,.16-.09,1,1,0,0,1,.29-.06l.48,0,.47,0a1,1,0,0,1,.29.06.34.34,0,0,1,.16.09.24.24,0,0,1,0,.14Z"/><path class="cls-1" d="M105.72,54.77c0,.19,0,.34,0,.46a1.43,1.43,0,0,1,0,.28.24.24,0,0,1-.08.14.22.22,0,0,1-.13,0l-.13,0-.18-.06-.21-.06-.26,0a.91.91,0,0,0-.32.06,1.43,1.43,0,0,0-.34.21,1.82,1.82,0,0,0-.36.37,5,5,0,0,0-.41.57V61a.24.24,0,0,1,0,.14.27.27,0,0,1-.16.09,1,1,0,0,1-.29.06l-.48,0-.47,0a1.13,1.13,0,0,1-.3-.06.31.31,0,0,1-.16-.09.23.23,0,0,1,0-.14V54.13a.32.32,0,0,1,0-.14.38.38,0,0,1,.14-.09.91.91,0,0,1,.26-.06l.4,0,.41,0a.77.77,0,0,1,.26.06.29.29,0,0,1,.12.09.23.23,0,0,1,0,.14V55a5.49,5.49,0,0,1,.51-.64,3.11,3.11,0,0,1,.46-.4,1.27,1.27,0,0,1,.43-.2,1.67,1.67,0,0,1,.44-.06H105l.24,0,.21.06.14.07a.24.24,0,0,1,.06.09l0,.13s0,.13,0,.24S105.72,54.59,105.72,54.77Z"/><path class="cls-1" d="M115.37,59.09a2.31,2.31,0,0,1-.22,1,2.15,2.15,0,0,1-.62.75,2.84,2.84,0,0,1-1,.45,4.46,4.46,0,0,1-1.19.15,4.35,4.35,0,0,1-.74-.06,3.28,3.28,0,0,1-.63-.14,3.91,3.91,0,0,1-.47-.18,1.39,1.39,0,0,1-.27-.18.57.57,0,0,1-.13-.26,2.05,2.05,0,0,1,0-.51,3.21,3.21,0,0,1,0-.36,1,1,0,0,1,0-.22.23.23,0,0,1,.07-.11l.12,0a.58.58,0,0,1,.25.09,3.92,3.92,0,0,0,.42.22,4.07,4.07,0,0,0,.57.21,2.48,2.48,0,0,0,.75.1,1.7,1.7,0,0,0,.47-.05,1.19,1.19,0,0,0,.36-.16.59.59,0,0,0,.22-.25.68.68,0,0,0,.08-.36.65.65,0,0,0-.14-.4,1.46,1.46,0,0,0-.38-.29,4.61,4.61,0,0,0-.54-.23l-.61-.24c-.21-.09-.41-.19-.61-.3a2.18,2.18,0,0,1-.53-.42,1.76,1.76,0,0,1-.38-.6,2.26,2.26,0,0,1,0-1.74,1.92,1.92,0,0,1,.55-.71,2.68,2.68,0,0,1,.89-.46,3.92,3.92,0,0,1,1.18-.16,4.44,4.44,0,0,1,.63,0c.2,0,.39.07.55.12a3.26,3.26,0,0,1,.42.15,1.93,1.93,0,0,1,.24.14.4.4,0,0,1,.11.12.47.47,0,0,1,0,.14.94.94,0,0,1,0,.2,2.63,2.63,0,0,1,0,.3,3.33,3.33,0,0,1,0,.34,1,1,0,0,1,0,.21.2.2,0,0,1-.07.1.2.2,0,0,1-.11,0,.59.59,0,0,1-.22-.08,3.22,3.22,0,0,0-.88-.35,2.21,2.21,0,0,0-.66-.08,1.62,1.62,0,0,0-.46,0,.91.91,0,0,0-.31.16.53.53,0,0,0-.19.23.72.72,0,0,0-.06.29.59.59,0,0,0,.15.41,1.29,1.29,0,0,0,.38.28c.16.08.35.16.55.24l.62.23c.21.09.42.19.62.3a2.23,2.23,0,0,1,.55.42,1.71,1.71,0,0,1,.38.59A2,2,0,0,1,115.37,59.09Z"/><path class="cls-1" d="M118.94,51.79a1.09,1.09,0,0,1-.25.81,1.3,1.3,0,0,1-.89.23,1.26,1.26,0,0,1-.88-.22,1,1,0,0,1-.23-.78,1.16,1.16,0,0,1,.23-.82,1.34,1.34,0,0,1,.9-.23,1.28,1.28,0,0,1,.88.22A1.05,1.05,0,0,1,118.94,51.79ZM118.79,61a.24.24,0,0,1-.05.14.27.27,0,0,1-.16.09,1,1,0,0,1-.3.06l-.47,0-.47,0a1.05,1.05,0,0,1-.3-.06.31.31,0,0,1-.16-.09.23.23,0,0,1,0-.14V54.15a.21.21,0,0,1,0-.14.4.4,0,0,1,.16-.1,1.48,1.48,0,0,1,.3-.07l.47,0,.47,0a1.33,1.33,0,0,1,.3.07.34.34,0,0,1,.16.1.22.22,0,0,1,.05.14Z"/><path class="cls-1" d="M127.29,61a.26.26,0,0,1,0,.14.27.27,0,0,1-.13.1,1.15,1.15,0,0,1-.25.06h-.8a1.15,1.15,0,0,1-.25-.06.26.26,0,0,1-.14-.1.2.2,0,0,1,0-.14v-.77a4.52,4.52,0,0,1-1.12.89,2.58,2.58,0,0,1-1.3.32,2.76,2.76,0,0,1-1.34-.3,2.62,2.62,0,0,1-.89-.83,3.67,3.67,0,0,1-.5-1.21,6.88,6.88,0,0,1-.15-1.46,6,6,0,0,1,.2-1.66,3.84,3.84,0,0,1,.57-1.26,2.58,2.58,0,0,1,1-.79,2.83,2.83,0,0,1,1.3-.28,2.38,2.38,0,0,1,1,.23,3.64,3.64,0,0,1,.94.7V50.88a.37.37,0,0,1,0-.15.34.34,0,0,1,.16-.1,1,1,0,0,1,.3-.06,3.7,3.7,0,0,1,.94,0,1.05,1.05,0,0,1,.3.06.36.36,0,0,1,.15.1.27.27,0,0,1,.05.15Zm-1.94-4.62a4.29,4.29,0,0,0-.8-.8,1.32,1.32,0,0,0-.8-.28,1.12,1.12,0,0,0-.66.19,1.3,1.3,0,0,0-.44.51,2.89,2.89,0,0,0-.25.7,4.36,4.36,0,0,0-.08.81,4.61,4.61,0,0,0,.07.84,2.6,2.6,0,0,0,.23.73,1.46,1.46,0,0,0,.42.52,1.11,1.11,0,0,0,.67.19,1.32,1.32,0,0,0,.39-.06,1.55,1.55,0,0,0,.39-.19,2.34,2.34,0,0,0,.4-.34,6.46,6.46,0,0,0,.46-.52Z"/><path class="cls-1" d="M135.63,57.38a.73.73,0,0,1-.16.53.56.56,0,0,1-.43.17h-4.21a2.83,2.83,0,0,0,.1.8,1.4,1.4,0,0,0,.34.61,1.45,1.45,0,0,0,.59.39,2.43,2.43,0,0,0,.86.13,4.84,4.84,0,0,0,.9-.07,5.89,5.89,0,0,0,.67-.17,4.22,4.22,0,0,0,.47-.16.79.79,0,0,1,.3-.07.24.24,0,0,1,.12,0s0,0,.07.09a.72.72,0,0,1,.05.2c0,.08,0,.19,0,.32a2.53,2.53,0,0,1,0,.29c0,.08,0,.15,0,.21a.58.58,0,0,1-.05.14.44.44,0,0,1-.08.11.81.81,0,0,1-.28.15,4.9,4.9,0,0,1-.57.18c-.23.06-.5.11-.8.16a7.27,7.27,0,0,1-1,.06,5.21,5.21,0,0,1-1.61-.23,2.74,2.74,0,0,1-1.16-.71,3,3,0,0,1-.7-1.19,5.68,5.68,0,0,1-.22-1.69,5.37,5.37,0,0,1,.24-1.66,3.65,3.65,0,0,1,.69-1.26,3.11,3.11,0,0,1,1.11-.78,4.34,4.34,0,0,1,3,0,2.71,2.71,0,0,1,1,.71,3,3,0,0,1,.58,1.08,4.77,4.77,0,0,1,.18,1.34Zm-1.89-.55a1.94,1.94,0,0,0-.33-1.29,1.24,1.24,0,0,0-1.09-.47,1.31,1.31,0,0,0-.64.14,1.2,1.2,0,0,0-.46.37,2,2,0,0,0-.28.56,2.93,2.93,0,0,0-.11.69Z"/></g></g></svg>