<svg xmlns="http://www.w3.org/2000/svg" width="170" height="60" viewBox="0 0 13253375 4711152" shape-rendering="geometricPrecision" text-rendering="geometricPrecision" image-rendering="optimizeQuality" fill-rule="evenodd" clip-rule="evenodd">
  <defs>
    <style>
<![CDATA[
    .fil1 {fill:#006677}
    .fil3 {fill:#E45300}
    .fil2 {fill:white}
    .fil0 {fill:#A1A1A1;fill-rule:nonzero}
   ]]>
    </style>
  </defs>
  <g id="Layer_x0020_1">
    <path class="fil0" d="M71801 4403737c0 26091 768 69378 31350 108913 42549 54456 126110 61193 167152 61193 138047 0 212684-72392 212684-167890 0-22397-3723-74638-53747-107465-31350-20890-45503-23875-173859-56702-65655-15661-97005-32089-97005-79838 0-53748 44765-87314 119373-87314 52979 0 109711 14922 113463 82084h77593c-1507-22397-2985-58948-32828-91776-43287-47010-115679-52979-151491-52979-101497 0-205209 47750-205209 157460 0 35812 11937 76086 55963 105929 27598 18674 64178 27627 146261 47749 75377 18674 123865 30612 123865 91066 0 26859-14154 96237-126110 96237-123864 0-128356-69378-129833-106667H71801zm793712-17197c1507-61164 5230-209671-162661-209671-21658 0-66423 2246-102235 27627-58977 41013-73869 102206-73869 176075 0 118635 55963 191795 173859 191795 75346 0 112695-31350 129094-50024 26859-29075 29843-59687 32089-78332h-70147c-5968 53718-42549 77593-88052 77593-76854 0-108943-57441-107465-135063h269387zm-266403-49226c1507-82852 56732-110450 102235-110450 86546 0 93283 74608 92544 110450H599110zm348220 223853h70885v-199240c0-64178 19413-113404 102236-113404 8214 0 14951 0 20151 738 5230 739 9692 1478 13415 2985v-68669c-11938-739-27598-1478-48488 1507-31350 4461-76115 21629-89530 73869l-1507-72392h-70885c2246 24613 3723 50763 3723 76115v298491zm361665 0h70885l164167-374606h-77622l-116388 297014-119403-297014h-78361l156722 374606zm283303-460413h84300v-76853h-84300v76853zm7446 460413h70147v-374606h-70147v374606zm184053 0h70147v-215669c0-75346 47010-111927 97744-111927 23874 0 48517 8215 66423 25382 17167 17167 20152 39535 20152 64148v238066h71623v-254465c0-114911-102235-127587-135801-127587-85068 0-111927 52211-120141 67901l-768-60455h-70117l738 43287v331319zm421351 29105c2955 50733 7446 120880 157431 120880 51501 0 124632-7446 155953-67162 14951-28337 17935-64917 17935-155215l739-234313 1477-67901h-67901l-738 51502c-14922-19413-42549-56702-117925-56702-91776 0-166384 61902-166384 188780 0 49995 10431 99990 42520 138047 31350 38796 80606 46242 114911 46242 22397 0 93312-1477 123155-63409 0 101496-1507 172382-99251 172382-66423 0-84329-31351-87314-73131h-74608zm155953-88052c-85836 0-102974-76115-102974-133586 0-47749 11938-137308 100729-137308 32088 0 61932 12705 80576 32857 18675 19383 29134 46242 29134 93253 0 67930-10459 88052-25381 107465-17167 22367-41042 37319-82084 37319zm426286-265664h66423v249974c0 61193 30582 79838 94760 79838 25381 0 45533-2216 58209-4462v-54456c-5969 1477-19413 3693-33567 3693-49994 0-49994-31321-49994-49965v-224622h83561v-51472h-83561v-100729l-69408 22368v78361h-66423v51472zm281058 324611h70885v-198501c0-23136 0-58180 11937-79100 9721-17906 35841-49995 88052-49995 80607 0 80607 72392 80607 105959v221637h71623v-234313c0-54457-5230-72392-12676-87314-21629-45503-78331-59686-117895-59686-52241 0-98512 22397-121648 61932v-217885h-70885v537266zm742978-174627c1477-61164 5200-209671-162690-209671-21659 0-66423 2246-102235 27627-58948 41013-73870 102206-73870 176075 0 118635 55964 191795 173859 191795 75377 0 112695-31350 129094-50024 26859-29075 29844-59687 32089-78332h-70146c-5969 53718-42549 77593-88052 77593-76854 0-108943-57441-107436-135063h269387zm-266403-49226c1478-82852 56702-110450 102206-110450 86575 0 93282 74608 92544 110450h-194750zm950138-169398c-9692-122386-117157-152968-193272-152968-191765 0-235791 169397-235791 282801 0 104481 36550 271633 226099 271633 92514 0 190288-44027 201457-150014h-82054c-2246 12705-6737 35812-26150 56731-23106 23875-54457 32089-87284 32089-123126 0-152230-109711-152230-211178 0-89559 23136-222376 152969-222376 103742 0 113433 74638 116418 93282h79838zm40805 210410c0 109711 60425 195517 184289 195517 127617 0 189549-91036 189549-200718 0-78360-33596-196256-183580-196256-147000 0-190258 108943-190258 201457zm73101-4462c0-117157 72392-145493 117157-145493 65685 0 108972 49227 108972 142509 0 112695-60484 150723-113434 150723-79867 0-112695-70885-112695-147739zm378064-187303v251481c0 73869 43287 126848 135831 126848 80576 0 105928-41780 119372-67900l1507 64177h73102c-739-20890-2217-62700-2217-70146v-304460h-72392v211916c0 18675 0 47779-15660 70147-20151 29843-53008 41780-88052 41780-71624 0-79838-46242-79838-82793v-241050h-71653zm440734 374606h70176v-215669c0-75346 46981-111927 97744-111927 23874 0 48487 8215 66393 25382 17168 17167 20152 39535 20152 64148v238066h71653v-254465c0-114911-102235-127587-135831-127587-85068 0-111927 52211-120111 67901l-769-60455h-70146l739 43287v331319zm371356-324611h66423v249974c0 61193 30582 79838 94760 79838 25381 0 45533-2216 58209-4462v-54456c-5969 1477-19413 3693-33566 3693-50025 0-50025-31321-50025-49965v-224622h83591v-51472h-83591v-100729l-69378 22368v78361h-66423v51472zm284781 324611h70885v-199240c0-64178 19413-113404 102235-113404 8215 0 14922 0 20152 738 5230 739 9691 1478 13415 2985v-68669c-11938-739-27598-1478-48488 1507-31351 4461-76115 21629-89530 73869l-1507-72392h-70915c2246 24613 3753 50763 3753 76115v298491zm596687-374606h-76085l-119403 295507-117156-295507h-79100l155953 373129-56702 143247h72392l53718-139524 166383-376852zm32591 285077l-47749 183550h50734l83590-183550h-86575zm365122 89529h74637v-239543h87285c97005 0 134324-17906 162689-46272 29105-29075 42520-64178 42520-105190 0-40303-12676-76854-39535-104481-36580-39535-81345-43287-147000-43287h-180596v538773zm74637-478319h104452c38796 0 108972 0 108972 84300 0 88052-75376 91805-124633 91805h-88791v-176105zm345236 478319h70885v-199240c0-64178 19413-113404 102236-113404 8214 0 14921 0 20151 738 5201 739 9692 1478 13415 2985v-68669c-11937-739-27598-1478-48488 1507-31350 4461-76115 21629-89530 73869l-1507-72392h-70914c2245 24613 3752 50763 3752 76115v298491zm254938-460413h84330v-76853h-84330v76853zm7476 460413h70117v-374606h-70117v374606zm441502-323843c-8982-15690-35841-63439-116447-63439-88053 0-169368 61932-169368 204441 0 164167 111188 190287 161183 190287 25381 0 61932-6707 92514-27597 19413-13415 27597-29105 33596-39565l1477 59716h70146c-1507-19413-2984-51501-2984-59716v-477550h-70117v213423zm2216 131310c0 29105 0 150753-110449 150753-85807 0-102944-76883-102944-143277 0-25382 0-149985 102944-149985 39564 0 67162 18645 82084 38058 15689 20151 28365 49995 28365 104451zm481038 17906c1507-61164 5230-209671-162661-209671-21658 0-66423 2246-102235 27627-58977 41013-73869 102206-73869 176075 0 118635 55963 191795 173859 191795 75346 0 112695-31350 129094-50024 26859-29075 29843-59687 32089-78332h-70147c-5968 53718-42548 77593-88052 77593-76854 0-108943-57441-107465-135063h269387zm-266403-49226c1507-82852 56702-110450 102235-110450 86546 0 93283 74608 92544 110450h-194779zm518120 41012c0 109711 60425 195517 184289 195517 127617 0 189549-91036 189549-200718 0-78360-33566-196256-183580-196256-147000 0-190258 108943-190258 201457zm73101-4462c0-117157 72392-145493 117157-145493 65684 0 108972 49227 108972 142509 0 112695-60455 150723-113434 150723-79867 0-112695-70885-112695-147739zm572813-355193c-14892-2246-37290-5230-57441-5230-48488 0-78361 17167-94021 41042-12706 19412-15660 38087-15660 89529v42549h-73899v50763h73899v323843h69378v-323843h87313v-50763h-87313v-58948c0-26120 0-54456 56702-54456 14212 0 29104 738 41042 1477v-55963zm180064 217885h66423v249974c0 61193 30582 79838 94760 79838 25381 0 45533-2216 58209-4462v-54456c-5969 1477-19413 3693-33567 3693-49994 0-49994-31321-49994-49965v-224622h83561v-51472h-83561v-100729l-69408 22368v78361h-66423v51472zm281058 324611h70885v-198501c0-23136 0-58180 11937-79100 9721-17906 35812-49995 88052-49995 80577 0 80577 72392 80577 105959v221637h71653v-234313c0-54457-5230-72392-12676-87314-21629-45503-78360-59686-117895-59686-52241 0-98512 22397-121648 61932v-217885h-70885v537266zm742978-174627c1477-61164 5200-209671-162690-209671-21659 0-66423 2246-102235 27627-58948 41013-73870 102206-73870 176075 0 118635 55964 191795 173859 191795 75377 0 112695-31350 129094-50024 26859-29075 29844-59687 32089-78332h-70146c-5969 53718-42549 77593-88052 77593-76854 0-108943-57441-107466-135063h269417zm-266403-49226c1478-82852 56702-110450 102206-110450 86575 0 93282 74608 92544 110450h-194750zm550918 223853h67901v-457428l273848 457428h95528v-538773h-68669v445491l-264895-445491h-103713v538773zm842199 0c-5230-38057-5968-88052-5968-94050l2984-179060c0-17167-739-35073-12676-57470-20151-38028-78360-55225-132847-55225-39564 0-92543 8983-120879 40304-21629 25381-23875 51472-26121 70885h70147c738-14922 4461-63439 75376-63439 20152 0 50734 5998 64916 24642 13445 16429 13445 36580 13445 82823-21659-1478-32857-2216-50763-2216-29844 0-89560 2216-129833 24613-55225 32089-65685 79838-65685 109681 0 61932 46302 110450 132079 110450 31350 0 82113-5999 115679-67901 0 19383 1477 37289 6707 55963h63439zm-71623-182073c-1507 52211-2246 73131-17936 98483-17137 26149-44026 40303-79838 40303-62700 0-77592-41042-77592-64917 0-76115 106697-76115 135063-76115 17167 0 27597 739 40303 2246zm112399-142538h66424v249974c0 61193 30582 79838 94730 79838 25411 0 45533-2216 58238-4462v-54456c-5968 1477-19413 3693-33595 3693-49995 0-49995-31321-49995-49965v-224622h83590v-51472h-83590v-100729l-69378 22368v78361h-66424v51472zm274322-135802h84329v-76853h-84329v76853zm7475 460413h70147v-374606h-70147v374606zm154210-182841c0 109711 60425 195517 184319 195517 127587 0 189519-91036 189519-200718 0-78360-33566-196256-183580-196256-147000 0-190258 108943-190258 201457zm73131-4462c0-117157 72362-145493 117127-145493 65684 0 108972 49227 108972 142509 0 112695-60455 150723-113434 150723-79838 0-112665-70885-112665-147739zm387755 187303h70146v-215669c0-75346 46981-111927 97744-111927 23874 0 48488 8215 66423 25382 17138 17167 20152 39535 20152 64148v238066h71624v-254465c0-114911-102236-127587-135802-127587-85097 0-111927 52211-120141 67901l-768-60455h-70117l739 43287v331319z"/>
    <path class="fil1" d="M7981673 0h815755l1988297 2679833V408350c0-229704-314359-399870-314359-399870h1019575s-267614 153176-267614 395645v3445473s-471611-191410-828489-676347c-356878-484938-1695095-2233189-1695095-2233189v2314031c0 165911 280349 370145 280349 370145H7973252s280349-153176 280349-357321V442389C8253601 136126 7981673 0 7981673 0zm4387604 2679390V404952c0-230000-316072-400372-316072-400372h1200170s-269061 153353-269061 396147v2829639c0 217235 256267 396058 256267 396058h-1153248s281944-174656 281944-353479v-593555zM5525576 366540v1097521h521577c241701 0 585223-127616 585223-574260 0-446673-508842-523261-686985-523261h-419815zm0 1454842v1429284h686985c267171 0 763337-229675 763337-676319 0-446673-407139-752965-788777-752965h-661545zM4636928 3280h1763055c394403 0 843026 337760 843026 797168 0 625319-479235 710417-479235 710417s839688 204175 839688 1008139c0 804054-916246 1107420-1221563 1107420l-1767575-4520s304814-158495 304814-426463V438843c0-280733-282210-435563-282210-435563z" id="_719543696"/>
    <g id="_719544824">
      <path class="fil2" d="M0 3626424h3623204V3280H0z"/>
      <path class="fil3" d="M0 3280h1132240c-3280 8066-11612 29518-21747 68698-49522 191529-120703 744485 376261 1554655 122594 199890 241405 358710 363289 514131l-393723 314772C803462 1656092 0 637345 0 637345V3280zm0 1381327v2241817l1097787-886402-756776-941687L0 1384607zm3623204-226424c-8067-11021-41633-61932-90801-112429-150486-154564-475896-403356-867965-190642-362166 196492-547401 646711-95793 1241951 371090 489783 706634 537591 895621 509964 32532-4757 132995-29045 158938-44883V1158183zm0-656699l-30-498204H1607781c-2334 8775-16989 39269-22810 90298-13090 114615-17670 332973 63616 642663 111602 424985 422001 803847 422001 803847s-31941-422504 357587-813007c246428-247048 525890-323607 752463-320090 79985 1241 153500 12114 216732 26474 26652 6028 205121 57294 225834 68019zm0 2241817c-8953 7565-30494 21363-67251 46420-98749 67280-311345 166590-661633 113936-317372-47749-621005-259104-899729-588030l-398717 319766c281265 338558 499120 609481 572192 661929 275060 197467 464431 122505 464431 122505l-254760 206597h1245467v-883123zm-1879532 883123H362314l112755-91627 766941-614593s304017 394728 423626 539601c22663 27420 39889 53215 52979 76440 23609 41928 20624 69526 25057 90179z"/>
    </g>
  </g>
</svg>
